<svg version="1.2" xmlns="http://www.w3.org/2000/svg" viewBox="0 0 256 64" width="256" height="64">
	<title>New Project</title>
	<style>
		.s0 { fill: #ffffff } 
	</style>
	<path id="clipper" class="s0" aria-label="clipper"  d="m60.5 44.5q-5.1 0-7.2-1.6-2.9-2.3-2.9-9.9 0-5.3 1.4-8.3 2.2-4.4 8.6-4.9 0.6 0 1 0 0.5 0 1 0 3.4 0 5.6 1 1 0.5 1 1.2v0.1q-0.2 0.8-0.2 2.1 0 1.2 0.2 3.1l-1.2 0.5q0.2-0.2 0.2-0.8 0-0.3-0.1-0.7 0-0.5 0-1-0.1-2-1.8-3.1-1.3-1.1-3.7-1.1h-0.4q-3.5 0.2-5.6 2.4-1.9 2-2.3 5.2-0.1 1.5-0.1 3.2 0 2.3 0.2 4.1 0.3 1.8 0.9 3.1 1.6 3.8 6.7 3.8 4 0 7.7-3.2l-0.6 3.2q-1.6 1.6-8.4 1.6zm10.6-0.3l0.5-1q0.2 0 0.4 0 0.3 0 0.5 0 4 0 4.5-2.3 0.2-0.8 0.3-3.4 0.1-2.7 0.1-7.3v-7.3q0.1-9.4-1-10.6-0.9-0.8-2.4-0.8-0.9 0-1.7 0.3l0.5-1q0.5 0.1 1.8 0.1 1.2 0 3.1 0.1 0.4 0 0.8 0 0.3-0.1 0.8-0.1 1-0.3 1.4-0.3 0.5 0 0.5 0.5 0 0.2 0 0.3-0.4 1.9-0.6 5.8-0.1 3.8-0.1 9.6v3.5q0 4.1 0.1 6.8 0.1 2.7 0.2 3.8 0.4 1.4 2.3 1.9 1.1 0.2 2.2 0.2 0.3 0 0.5 0 0.3 0 0.5 0l-0.5 1.2q-0.7-0.3-2.4-0.4-1.7-0.1-4.3-0.2-0.5 0-2.5 0.2-1.9 0.1-5.5 0.4zm22.4-28.4q-0.7 0-1.7-0.9-0.9-0.8-0.9-1.3 0-0.3 1.6-1.6 1.1-0.9 1.4-0.9 0.2 0 0.6 0.3 0.3 0.2 0.5 0.4 0.3 0.1 0.5 0.2 0.7 0.4 1.8 0.4 0.2 0 0.2 0.4 0 0.1-0.1 0.3-0.1 0.2-0.6 0.5-0.3 0.3-1 0.8-1.8 1.4-2.3 1.4zm-6.8 28.3l0.4-1q4.9 0 5.4-2.3 0.3-0.8 0.3-2.8 0.2-2 0.2-5.4v-2.4q0-7.8-1.1-8.7-0.9-0.7-2.4-0.7-0.3 0-0.8 0.1-0.4 0-0.9 0.1l0.5-0.9q0.5 0 1.8 0.1 1.2 0 3.1 0.1 0.3 0 0.8 0 0.4-0.1 0.9-0.1 0.6-0.1 0.9-0.2 0.2 0 0.4 0 0.5 0 0.5 0.4v0.2q-0.4 1.6-0.5 4.1-0.2 2.5-0.2 5.9v2q0 5.9 0.4 8.3 0.4 2.1 5.4 2.1l-0.5 1.1q-1.8-0.5-5.8-0.5-0.3 0-0.7 0-0.3 0-0.6 0-0.9 0-2.7 0.2-1.9 0.1-4.8 0.3zm14.5 9.5l0.5-1q0.1 0 0.8 0 1.5 0 2.7-0.5 1.6-0.6 2-1.9 0.4-1.9 0.4-10.7v-7.3q0-9.3-1-10.6-0.9-0.7-2.4-0.7-0.4 0-0.9 0-0.3 0.1-0.8 0.2l0.5-1q0.5 0.1 1.7 0.1 1.3 0.1 3.2 0.1 0.6 0.1 1.6-0.1 0.6-0.1 0.9-0.2 0.3 0 0.4 0 0.6 0 0.6 0.5 0 0-0.1 0.1 0 0 0 0.1-0.1 0.7-0.1 1.6-0.2 0.9-0.2 1.9 2-3.1 7-3.7 0.5-0.1 0.9-0.1 0.4 0 0.9 0 4.4 0 6.2 3.1 1.5 2.4 1.5 7.7 0 13.2-10.4 13.2-4.6 0-6.4-2.9v4.5q0 1.2 0.1 2.3 0.1 1 0.2 1.9 0.3 1.4 2.3 2 1.2 0.3 2.5 0.3h0.9l-0.5 1.1q-1.4-0.4-3.3-0.5-1.9-0.1-3.7-0.1-0.7 0-2.7 0.2-2 0.1-5.3 0.4zm15.5-10.7q3.9 0 6-3.6 1.2-2.2 1.2-6.3 0-4.4-1.1-7-1.5-3.7-5.2-3.7-3.9 0-6 3.6-1.3 2.1-1.3 6.3 0 4.3 1.1 7 1.6 3.7 5.3 3.7zm12.4 10.7l0.5-1q0.2 0 0.8 0 1.5 0 2.8-0.5 1.6-0.6 1.9-1.9 0.5-1.9 0.5-10.7v-7.3q0-9.3-1-10.6-1-0.7-2.5-0.7-0.3 0-0.8 0-0.4 0.1-0.9 0.2l0.5-1q0.5 0.1 1.8 0.1 1.2 0.1 3.2 0.1 0.5 0.1 1.6-0.1 0.6-0.1 0.9-0.2 0.3 0 0.4 0 0.6 0 0.6 0.5 0 0-0.1 0.1 0 0 0 0.1-0.1 0.7-0.2 1.6-0.1 0.9-0.2 1.9 2-3.1 7-3.7 0.5-0.1 1-0.1 0.4 0 0.9 0 4.3 0 6.1 3.1 1.5 2.4 1.5 7.7 0 13.2-10.3 13.2-4.6 0-6.5-2.9v4.4q0 1.3 0.1 2.4 0.2 1 0.3 1.9 0.2 1.4 2.3 2 1.2 0.3 2.5 0.3h0.8l-0.5 1.1q-1.3-0.4-3.2-0.5-2-0.1-3.7-0.1-0.7 0-2.7 0.2-2 0.1-5.4 0.4zm15.6-10.7q3.9 0 6-3.6 1.2-2.2 1.2-6.3 0-4.4-1.1-7-1.5-3.7-5.2-3.7-4 0-6 3.6-1.3 2.1-1.3 6.3 0 4.3 1.1 7 1.5 3.7 5.3 3.7zm25 1.5q-5.5 0-7.8-3.1-1.9-2.8-1.9-8.7 0-4.8 1.6-7.9 2.5-4.9 10.1-4.9 4.4 0 6.6 2.1 2.1 1.9 2.1 5.3l-1.4 1.9q-1.2 1.7-1.6 1.7-1.1-0.2-2.3-0.2-0.2 0-0.5 0.1-0.3 0-0.5 0l-3.7 0.1q-2 0-3.7 0.1-1.6 0-2.9 0.1v0.8q0 5.1 0.9 7.3 1.5 3.7 6.4 3.7 6.9 0 8.1-6.2 0-0.2 0-0.4 0-0.2 0-0.3l1.1-0.5q-0.1 1-0.2 3.4 0.1 0.5 0.1 1.1 0 0.6 0 1.4 0 0.5-0.6 1-2.1 2.1-9.9 2.1zm-1.9-15.2q0.5 0 1.1 0 0.5 0 1.2-0.1 2.1 0 3.6-0.1 1.5-0.1 2.5-0.2 1-0.2 1-1.7 0-0.4-0.1-0.8 0-0.4-0.2-0.8-1.2-4.2-5.8-4.2-6.2 0-7.1 6.2-0.1 0.1-0.1 0.5 0 0.4 0 0.9 0.5 0.1 1.5 0.2 1 0.1 2.4 0.1zm15.1 14.9l0.5-1.1q0.1 0.1 0.6 0.1 1.3 0 2.4-0.5 1.4-0.6 1.8-1.6 0.3-0.7 0.4-1.9 0.1-1.2 0.2-2.8v-7.2-0.6q0-5.9-1-7-0.7-0.5-2.4-0.7-0.3 0-0.6 0-0.2 0-0.5 0-0.8 0-1.5 0.1l0.4-0.9q0.4 0 1.9 0.1 1.5 0 4 0.1 0.3 0 0.6 0 0.4 0 0.8-0.1 0.5-0.1 0.7-0.1 0.3 0 0.4 0 0.7 0 0.7 0.6 0 0.2-0.1 0.3l-0.3 3.4q0.2-0.2 0.9-0.9 0.7-0.6 1.9-1.7 2.2-1.7 4.8-1.7 0.4 0 0.7 0 0.4 0 0.7 0.1 3.8 0.6 3.7 4.3 0 1.2-2.4 2.8-0.1 0-0.1 0.1 0 0-0.1 0-0.1 0-0.4-1.4-0.7-3.9-3.5-3.9-0.2 0-0.4 0-0.2 0-0.4 0.1-1.4 0.1-3.2 1.8-2.2 1.7-2.2 3.3 0 0.6-0.1 0.6v2.1q0 1.1 0.2 6.2 0 0.9 0.1 2.2 0.1 1.2 0.3 2.8 0.4 2 4.6 2 0.5 0 0.8 0 0.4 0 0.7-0.1l-0.6 1.1q-1.1-0.2-2.9-0.2-1.7-0.1-3.9-0.1h-0.7q-5 0-7.5 0.3z"/>
</svg>