<svg version="1.2" xmlns="http://www.w3.org/2000/svg" viewBox="0 0 64 64" width="64" height="64">
	<title>New Project(2)</title>
	<style>
		.s0 { fill: #000000 } 
		.s1 { fill: #ffffff } 
	</style>
	<path id="Shape 1" fill-rule="evenodd" class="s0" d="m82-18v100h-100v-100z"/>
	<path id="c" class="s1" aria-label="c"  d="m32.5 42.4q-4.3 0-6.1-1.4-2.4-1.9-2.4-8.2 0-4.4 1.2-7 1.8-3.7 7.2-4.1 0.5 0 0.8 0 0.5 0 0.8 0 2.9 0 4.8 0.9 0.8 0.3 0.8 0.9v0.1q-0.1 0.7-0.1 1.7 0 1.1 0.1 2.7l-0.9 0.4q0-0.2 0-0.7 0-0.3 0-0.6 0-0.3 0-0.8-0.1-1.6-1.5-2.7-1.1-0.8-3.1-0.8h-0.4q-2.9 0.1-4.7 1.9-1.6 1.7-1.9 4.4-0.1 1.3-0.1 2.7 0 1.9 0.2 3.5 0.2 1.5 0.7 2.6 1.4 3.1 5.6 3.1 3.4 0 6.5-2.6l-0.5 2.6q-1.3 1.4-7 1.4z"/>
</svg>